# xmcd
#
# Track frame offsets:
#	150
#	7285
#	24639
#	46110
#	65389
#	68873
#	91139
#	104505
#	105288
#	131341
#	141803
#	164144
#	165153
#	189040
#	191842
#	209900
#	228036
#	231848
#
# Disc length: 3307 seconds
#
# Revision: 2
# Processed by: cddbd v1.5.2PL0 Copyright (c) Steve Scherf et al.
# Submitted via: dBpowerAMP V4.0
#
DISCID=f00ce912
DTITLE=Servin Tha World Click - Shippin N Handlin Vol.II
DYEAR=1900
DGENRE=Hardcore - Rap
TTITLE0=Intro
TTITLE1=Enough Said
TTITLE2=Servin Em Dirty featuring Dirty Jack Lex Ball
TTITLE3=All Black featuring Young Buck,D-Tay of TIP
TTITLE4=DEA Houston Airport(skit)
TTITLE5=Word of Mouth
TTITLE6=Everything Gold featuring Rawlow B
TTITLE7=Ride or Hide(skit)
TTITLE8=Choppaz Choppin featuring Smoked Out Records
TTITLE9=Page for Page(Part II)
TTITLE10=I'll Never Happen featuring Shannon Sanders
TTITLE11=What u Smell?(skit)
TTITLE12=In The Aire
TTITLE13=Telephone(skit)
TTITLE14=Murda Call featuring Young Buck and SlowPoke
TTITLE15=Made Men featuring Bombshell and Baby Capone
TTITLE16=Big "D" Trying To Spit(skit)
TTITLE17=No Hope
EXTD=
EXTT0=
EXTT1=
EXTT2=
EXTT3=
EXTT4=
EXTT5=
EXTT6=
EXTT7=
EXTT8=
EXTT9=
EXTT10=
EXTT11=
EXTT12=
EXTT13=
EXTT14=
EXTT15=
EXTT16=
EXTT17=
PLAYORDER=
